<svg width="45" height="45" viewBox="0 0 45 45" fill="none" xmlns="http://www.w3.org/2000/svg">
<path fill-rule="evenodd" clip-rule="evenodd" d="M45 22.5C45 34.9264 34.9264 45 22.5 45C10.0736 45 0 34.9264 0 22.5C0 10.0736 10.0736 0 22.5 0C34.9264 0 45 10.0736 45 22.5ZM23.2868 16.5987C21.0949 17.5167 16.7298 19.4088 10.1728 22.2565C9.12364 22.6873 8.56161 23.0995 8.50541 23.5117C8.42244 24.2086 9.29476 24.4793 10.4715 24.8445C10.6234 24.8916 10.7803 24.9403 10.9409 24.9917C12.1024 25.3664 13.6386 25.7973 14.4442 25.816C15.1748 25.8347 15.9804 25.535 16.8797 24.9167C23.0058 20.7764 26.1532 18.6782 26.3593 18.6407C26.5091 18.6032 26.6965 18.5658 26.8276 18.6782C26.9588 18.7906 26.9588 19.0154 26.94 19.0716C26.8506 19.444 23.1959 22.8369 21.5328 24.3809C21.1043 24.7787 20.808 25.0537 20.739 25.1228C20.5632 25.3037 20.3843 25.4749 20.2123 25.6396C19.1369 26.6689 18.33 27.4413 20.2519 28.7011C21.1256 29.2779 21.8303 29.7587 22.5243 30.2322C23.363 30.8044 24.186 31.3659 25.2727 32.0733C25.5287 32.2414 25.7738 32.4158 26.0129 32.5859C26.9462 33.2498 27.7883 33.8488 28.8322 33.7594C29.4317 33.7032 30.0499 33.1411 30.3684 31.455C31.1178 27.4833 32.5791 18.8468 32.9163 15.2873C32.9538 14.9875 32.9163 14.5941 32.8788 14.4067C32.8414 14.2194 32.7852 13.9759 32.5603 13.7885C32.2793 13.5637 31.8672 13.5262 31.6798 13.5262C30.8368 13.545 29.5254 13.9946 23.2868 16.5987Z" fill="url(#paint0_linear_1103_6)"/>
<defs>
<linearGradient id="paint0_linear_1103_6" x1="22.4812" y1="0" x2="22.4812" y2="44.6442" gradientUnits="userSpaceOnUse">
<stop stop-color="#15C9CD"/>
<stop offset="1" stop-color="#15C9CD"/>
</linearGradient>
</defs>
</svg>
