<?xml version="1.0" encoding="utf-8"?><svg xmlns="http://www.w3.org/2000/svg" xmlns:xlink="http://www.w3.org/1999/xlink"><symbol fill="#fff" viewBox="0 0 58 58" id="calculator" xmlns="http://www.w3.org/2000/svg"><path d="M21 14h-5V9a1 1 0 1 0-2 0v5H9a1 1 0 1 0 0 2h5v5a1 1 0 1 0 2 0v-5h5a1 1 0 1 0 0-2zM49 14H37a1 1 0 1 0 0 2h12a1 1 0 1 0 0-2z"/><path d="M30 0H0v58h58V0H30zM2 2h26v26H2V2zm0 54V30h26v26H2zm54 0H30V30h26v26zM30 28V2h26v26H30z"/><path d="M37 47h12a1 1 0 1 0 0-2H37a1 1 0 1 0 0 2zM37 41h12a1 1 0 1 0 0-2H37a1 1 0 1 0 0 2zM20.707 37.293a.999.999 0 0 0-1.414 0L15 41.586l-4.293-4.293a.999.999 0 1 0-1.414 1.414L13.586 43l-4.293 4.293a.999.999 0 1 0 1.414 1.414L15 44.414l4.293 4.293a.997.997 0 0 0 1.414 0 .999.999 0 0 0 0-1.414L16.414 43l4.293-4.293a.999.999 0 0 0 0-1.414z"/></symbol><symbol fill="#000" viewBox="0 0 512 512" id="contact" xmlns="http://www.w3.org/2000/svg"><path d="M313.9 376.7c41.3-68.5 93.5-164.8 93.5-214.3C407.4 78.9 339.5 11 256 11S104.6 78.9 104.6 162.4c0 49.5 52.2 145.8 93.5 214.3-49 3.7-160.5 17-160.5 61.1 0 43.4 113.2 63.2 218.5 63.2 105.2 0 218.5-19.8 218.5-63.2-.1-44.1-111.7-57.4-160.7-61.1zM125.5 162.4c0-72 58.6-130.6 130.5-130.6 72 0 130.6 58.6 130.6 130.6 0 62.9-100.2 220.7-130.6 267.1-30.4-46.4-130.5-204.2-130.5-267.1zM256 480.1c-127.9 0-197.6-28-197.6-42.4 0-11.1 46-35 152-41.1 19.9 32.1 35 54.8 37 57.5 2.7 3.6 10.6 7.9 17.3 0 2.1-2.5 17.1-25.4 37-57.5 106 6.1 152 29.9 152 41.1-.1 14.5-69.8 42.4-197.7 42.4z"/><path d="M321.9 162.4c0-36.4-29.5-65.9-65.9-65.9-36.4 0-65.9 29.5-65.9 65.9 0 36.4 29.5 65.9 65.9 65.9 36.4 0 65.9-29.5 65.9-65.9zm-111 0c0-24.9 20.2-45.1 45.1-45.1s45.1 20.2 45.1 45.1c0 24.9-20.2 45.1-45.1 45.1s-45.1-20.2-45.1-45.1z"/></symbol><symbol fill="#fff" viewBox="0 0 442.003 442.003" id="for-shopping" xmlns="http://www.w3.org/2000/svg"><path d="M337.897 189.476c-.01-.082-.016-.165-.028-.246a9.855 9.855 0 0 0-.244-1.205l-.004-.013a9.962 9.962 0 0 0-.379-1.102c-.042-.104-.088-.204-.133-.306a9.948 9.948 0 0 0-.385-.774c-.061-.111-.12-.222-.186-.331-.035-.059-.063-.12-.1-.179-.148-.235-.31-.456-.474-.675-.031-.041-.056-.084-.087-.124a9.722 9.722 0 0 0-.803-.91c-.053-.054-.111-.104-.166-.156a10.075 10.075 0 0 0-.767-.668c-.068-.053-.134-.106-.204-.157-.356-.264-.723-.51-1.106-.723L185.506 98.164l84.825-53.414 142.207 80.832-59.891 37.713c-4.674 2.942-6.077 9.117-3.134 13.79 2.942 4.674 9.116 6.077 13.79 3.134l74.026-46.613a9.996 9.996 0 0 0 4.669-8.688 9.996 9.996 0 0 0-5.056-8.468L275.009 24.404a10.001 10.001 0 0 0-10.27.231L160.783 90.096l-.064.04-51.947 32.711a4.4 4.4 0 0 0-.071.045L4.674 188.398a9.996 9.996 0 0 0-4.669 8.688 9.996 9.996 0 0 0 5.056 8.468L166.995 297.6a9.995 9.995 0 0 0 10.269-.231l74.026-46.614c4.674-2.942 6.077-9.117 3.134-13.79-2.941-4.674-9.117-6.078-13.79-3.134l-68.961 43.424-142.207-80.834 84.826-53.415 151.67 86.212V343.4a10 10 0 0 0 15.328 8.462l52.014-32.753a10 10 0 0 0 4.672-8.462v-120c0-.059-.01-.115-.012-.174a10.135 10.135 0 0 0-.067-.997zm-51.935 135.811V223.401a9.998 9.998 0 0 0-5.059-8.693l-147.411-83.791 32.813-20.663 142.206 80.833-12.451 7.84c-4.674 2.942-6.077 9.117-3.134 13.79a9.988 9.988 0 0 0 8.472 4.673 9.95 9.95 0 0 0 5.318-1.539l11.259-7.089v96.366l-32.013 20.159z"/><path d="M426.674 156.681l-74.026 46.613c-4.674 2.942-6.077 9.117-3.134 13.79a9.988 9.988 0 0 0 8.472 4.673 9.95 9.95 0 0 0 5.318-1.539l74.026-46.613c4.674-2.942 6.077-9.117 3.134-13.79-2.942-4.674-9.117-6.078-13.79-3.134zM240.633 273.83l-68.961 43.424-156.729-89.087c-4.798-2.728-10.906-1.052-13.635 3.752-2.729 4.801-1.05 10.906 3.752 13.635L166.994 337.6a9.995 9.995 0 0 0 10.269-.231l74.026-46.614c4.674-2.942 6.077-9.117 3.134-13.79-2.941-4.675-9.117-6.079-13.79-3.135zM426.674 196.681l-74.026 46.613c-4.674 2.942-6.077 9.117-3.134 13.79a9.988 9.988 0 0 0 8.472 4.673 9.95 9.95 0 0 0 5.318-1.539l74.026-46.613c4.674-2.942 6.077-9.117 3.134-13.79-2.942-4.675-9.117-6.078-13.79-3.134z"/><path d="M240.633 313.83l-68.961 43.424-156.729-89.087c-4.798-2.728-10.906-1.052-13.635 3.752-2.729 4.801-1.05 10.906 3.752 13.635L166.994 377.6a9.995 9.995 0 0 0 10.269-.231l74.026-46.614c4.674-2.942 6.077-9.117 3.134-13.79-2.941-4.676-9.117-6.079-13.79-3.135zM426.674 236.681l-74.026 46.613c-4.674 2.942-6.077 9.117-3.134 13.79a9.988 9.988 0 0 0 8.472 4.673 9.95 9.95 0 0 0 5.318-1.539l74.026-46.613c4.674-2.942 6.077-9.117 3.134-13.79-2.942-4.674-9.117-6.077-13.79-3.134z"/><path d="M240.633 353.83l-68.961 43.424-156.729-89.087c-4.798-2.728-10.906-1.052-13.635 3.752-2.729 4.801-1.05 10.906 3.752 13.635L166.994 417.6a9.995 9.995 0 0 0 10.269-.231l74.026-46.614c4.674-2.942 6.077-9.117 3.134-13.79-2.941-4.675-9.117-6.079-13.79-3.135z"/></symbol><symbol fill="#fff" viewBox="0 0 46.177 46.177" id="home" xmlns="http://www.w3.org/2000/svg"><path d="M23.856 1.451L34.84 11.673l10.984 10.222c.444.429.476 1.127.063 1.587a1.117 1.117 0 0 1-.825.349v.016h-5.555V43.91c0 .619-.508 1.127-1.127 1.127h-8.746a1.118 1.118 0 0 1-1.111-1.127V28.482H17.666V43.91c0 .619-.508 1.127-1.127 1.127H7.793a1.118 1.118 0 0 1-1.111-1.127V23.847H1.111A1.117 1.117 0 0 1 0 22.721c0-.349.159-.667.413-.873l10.936-10.174L22.332 1.435a1.11 1.11 0 0 1 1.524.016zm9.46 11.857L23.094 3.785l-10.222 9.524-8.904 8.286h3.825c.619 0 1.127.508 1.127 1.127v20.063h6.508V27.371c0-.619.492-1.127 1.111-1.127h13.095c.619 0 1.127.508 1.127 1.127v15.412h6.508V22.721c0-.619.492-1.127 1.111-1.127h3.841l-8.905-8.286z"/></symbol><symbol fill="#000" viewBox="0 0 65 65" id="information" xmlns="http://www.w3.org/2000/svg"><path d="M32.5 0C14.58 0 0 14.579 0 32.5S14.58 65 32.5 65 65 50.421 65 32.5 50.42 0 32.5 0zm0 61C16.785 61 4 48.215 4 32.5S16.785 4 32.5 4 61 16.785 61 32.5 48.215 61 32.5 61z"/><circle cx="33.018" cy="19.541" r="3.345"/><path d="M32.137 28.342a2 2 0 0 0-2 2v17a2 2 0 0 0 4 0v-17a2 2 0 0 0-2-2z"/></symbol><symbol fill="#fff" viewBox="0 0 129 129" id="menu" xmlns="http://www.w3.org/2000/svg"><path d="M91.4 33.5H37.6c-2.3 0-4.1 1.8-4.1 4.1s1.8 4.1 4.1 4.1h53.9c2.3 0 4.1-1.8 4.1-4.1-.1-2.3-1.9-4.1-4.2-4.1zM91.4 87.4H37.6c-2.3 0-4.1 1.8-4.1 4.1s1.8 4.1 4.1 4.1h53.9c2.3 0 4.1-1.8 4.1-4.1-.1-2.3-1.9-4.1-4.2-4.1zM91.4 60.4H37.6c-2.3 0-4.1 1.8-4.1 4.1s1.8 4.1 4.1 4.1h53.9c2.3 0 4.1-1.8 4.1-4.1-.1-2.3-1.9-4.1-4.2-4.1z"/></symbol><symbol fill="#000" viewBox="0 0 512.003 512.003" id="price" xmlns="http://www.w3.org/2000/svg"><path d="M477.958 262.633a15.004 15.004 0 0 1 0-13.263l19.096-39.065c10.632-21.751 2.208-47.676-19.178-59.023l-38.41-20.38a15.005 15.005 0 0 1-7.796-10.729l-7.512-42.829c-4.183-23.846-26.241-39.87-50.208-36.479l-43.053 6.09a15.004 15.004 0 0 1-12.613-4.099l-31.251-30.232c-17.401-16.834-44.661-16.835-62.061 0L193.72 42.859a15.01 15.01 0 0 1-12.613 4.099l-43.053-6.09c-23.975-3.393-46.025 12.633-50.208 36.479l-7.512 42.827a15.008 15.008 0 0 1-7.795 10.73l-38.41 20.38c-21.386 11.346-29.81 37.273-19.178 59.024l19.095 39.064a15.004 15.004 0 0 1 0 13.263L14.95 301.699c-10.632 21.751-2.208 47.676 19.178 59.023l38.41 20.38a15.005 15.005 0 0 1 7.796 10.729l7.512 42.829c3.808 21.708 22.422 36.932 43.815 36.93 2.107 0 4.245-.148 6.394-.452l43.053-6.09a15 15 0 0 1 12.613 4.099l31.251 30.232c8.702 8.418 19.864 12.626 31.03 12.625 11.163-.001 22.332-4.209 31.03-12.625l31.252-30.232c3.372-3.261 7.968-4.751 12.613-4.099l43.053 6.09c23.978 3.392 46.025-12.633 50.208-36.479l7.513-42.827a15.008 15.008 0 0 1 7.795-10.73l38.41-20.38c21.386-11.346 29.81-37.273 19.178-59.024l-19.096-39.065zm-13.923 72.002l-38.41 20.38c-12.246 6.499-20.645 18.057-23.04 31.713l-7.512 42.828a15.038 15.038 0 0 1-16.987 12.342l-43.053-6.09c-13.73-1.945-27.316 2.474-37.281 12.113L266.5 478.152a15.04 15.04 0 0 1-20.997 0l-31.251-30.232c-8.422-8.147-19.432-12.562-30.926-12.562-2.106 0-4.229.148-6.355.449l-43.053 6.09a15.042 15.042 0 0 1-16.987-12.342l-7.513-42.829c-2.396-13.656-10.794-25.215-23.041-31.712l-38.41-20.38a15.037 15.037 0 0 1-6.489-19.969L60.574 275.6c6.088-12.456 6.088-26.742 0-39.198l-19.096-39.065a15.037 15.037 0 0 1 6.489-19.969l38.41-20.38c12.246-6.499 20.645-18.057 23.04-31.713l7.512-42.828a15.038 15.038 0 0 1 16.987-12.342l43.053 6.09c13.725 1.943 27.316-2.474 37.281-12.113l31.252-30.232a15.04 15.04 0 0 1 20.997 0l31.251 30.232c9.965 9.64 23.554 14.056 37.281 12.113l43.053-6.09a15.04 15.04 0 0 1 16.987 12.342l7.512 42.829c2.396 13.656 10.794 25.215 23.041 31.712l38.41 20.38a15.037 15.037 0 0 1 6.489 19.969l-19.096 39.064c-6.088 12.455-6.088 26.743 0 39.198l19.096 39.064a15.039 15.039 0 0 1-6.488 19.972z"/><path d="M363.886 148.116c-5.765-5.766-15.115-5.766-20.881 0l-194.889 194.89c-5.766 5.766-5.766 15.115 0 20.881a14.72 14.72 0 0 0 10.44 4.325c3.778 0 7.558-1.441 10.44-4.325l194.889-194.889c5.768-5.767 5.768-15.115.001-20.882zM196.941 123.116c-29.852 0-54.139 24.287-54.139 54.139s24.287 54.139 54.139 54.139 54.139-24.287 54.139-54.139-24.287-54.139-54.139-54.139zm0 78.747c-13.569 0-24.608-11.039-24.608-24.609 0-13.569 11.039-24.608 24.608-24.608s24.609 11.039 24.609 24.608c-.001 13.57-11.04 24.609-24.609 24.609zM315.061 280.61c-29.852 0-54.139 24.287-54.139 54.139s24.287 54.139 54.139 54.139c29.852 0 54.139-24.287 54.139-54.139s-24.287-54.139-54.139-54.139zm0 78.747c-13.569 0-24.609-11.039-24.609-24.608s11.039-24.608 24.609-24.608c13.569 0 24.608 11.039 24.608 24.608s-11.039 24.608-24.608 24.608z"/></symbol><symbol fill="#78c02b" viewBox="0 0 451.846 451.847" id="right" xmlns="http://www.w3.org/2000/svg"><path d="M345.441 248.292L151.154 442.573c-12.359 12.365-32.397 12.365-44.75 0-12.354-12.354-12.354-32.391 0-44.744L278.318 225.92 106.409 54.017c-12.354-12.359-12.354-32.394 0-44.748 12.354-12.359 32.391-12.359 44.75 0l194.287 194.284c6.177 6.18 9.262 14.271 9.262 22.366 0 8.099-3.091 16.196-9.267 22.373z"/></symbol><symbol fill="#fff" viewBox="0 0 451.846 451.847" id="right--white" xmlns="http://www.w3.org/2000/svg"><path d="M345.441 248.292L151.154 442.573c-12.359 12.365-32.397 12.365-44.75 0-12.354-12.354-12.354-32.391 0-44.744L278.318 225.92 106.409 54.017c-12.354-12.359-12.354-32.394 0-44.748 12.354-12.359 32.391-12.359 44.75 0l194.287 194.284c6.177 6.18 9.262 14.271 9.262 22.366 0 8.099-3.091 16.196-9.267 22.373z"/></symbol><symbol fill="#fff" viewBox="0 0 478.703 478.703" id="services" xmlns="http://www.w3.org/2000/svg"><path d="M454.2 189.101l-33.6-5.7c-3.5-11.3-8-22.2-13.5-32.6l19.8-27.7c8.4-11.8 7.1-27.9-3.2-38.1l-29.8-29.8c-5.6-5.6-13-8.7-20.9-8.7-6.2 0-12.1 1.9-17.1 5.5l-27.8 19.8c-10.8-5.7-22.1-10.4-33.8-13.9l-5.6-33.2a29.54 29.54 0 0 0-29.2-24.7h-42.1c-14.5 0-26.8 10.4-29.2 24.7l-5.8 34c-11.2 3.5-22.1 8.1-32.5 13.7l-27.5-19.8c-5-3.6-11-5.5-17.2-5.5-7.9 0-15.4 3.1-20.9 8.7l-29.9 29.8c-10.2 10.2-11.6 26.3-3.2 38.1l20 28.1c-5.5 10.5-9.9 21.4-13.3 32.7l-33.2 5.6a29.54 29.54 0 0 0-24.7 29.2v42.1c0 14.5 10.4 26.8 24.7 29.2l34 5.8c3.5 11.2 8.1 22.1 13.7 32.5l-19.7 27.4c-8.4 11.8-7.1 27.9 3.2 38.1l29.8 29.8c5.6 5.6 13 8.7 20.9 8.7 6.2 0 12.1-1.9 17.1-5.5l28.1-20c10.1 5.3 20.7 9.6 31.6 13l5.6 33.6a29.54 29.54 0 0 0 29.2 24.7h42.2c14.5 0 26.8-10.4 29.2-24.7l5.7-33.6c11.3-3.5 22.2-8 32.6-13.5l27.7 19.8c5 3.6 11 5.5 17.2 5.5 7.9 0 15.3-3.1 20.9-8.7l29.8-29.8c10.2-10.2 11.6-26.3 3.2-38.1l-19.8-27.8c5.5-10.5 10.1-21.4 13.5-32.6l33.6-5.6a29.54 29.54 0 0 0 24.7-29.2v-42.1c.2-14.5-10.2-26.8-24.5-29.2zm-2.3 71.3c0 1.3-.9 2.4-2.2 2.6l-42 7c-5.3.9-9.5 4.8-10.8 9.9-3.8 14.7-9.6 28.8-17.4 41.9-2.7 4.6-2.5 10.3.6 14.7l24.7 34.8c.7 1 .6 2.5-.3 3.4l-29.8 29.8c-.7.7-1.4.8-1.9.8-.6 0-1.1-.2-1.5-.5l-34.7-24.7c-4.3-3.1-10.1-3.3-14.7-.6-13.1 7.8-27.2 13.6-41.9 17.4-5.2 1.3-9.1 5.6-9.9 10.8l-7.1 42c-.2 1.3-1.3 2.2-2.6 2.2h-42.1c-1.3 0-2.4-.9-2.6-2.2l-7-42c-.9-5.3-4.8-9.5-9.9-10.8-14.3-3.7-28.1-9.4-41-16.8-2.1-1.2-4.5-1.8-6.8-1.8-2.7 0-5.5.8-7.8 2.5l-35 24.9c-.5.3-1 .5-1.5.5-.4 0-1.2-.1-1.9-.8l-29.8-29.8c-.9-.9-1-2.3-.3-3.4l24.6-34.5c3.1-4.4 3.3-10.2.6-14.8-7.8-13-13.8-27.1-17.6-41.8-1.4-5.1-5.6-9-10.8-9.9l-42.3-7.2c-1.3-.2-2.2-1.3-2.2-2.6v-42.1c0-1.3.9-2.4 2.2-2.6l41.7-7c5.3-.9 9.6-4.8 10.9-10 3.7-14.7 9.4-28.9 17.1-42 2.7-4.6 2.4-10.3-.7-14.6l-24.9-35c-.7-1-.6-2.5.3-3.4l29.8-29.8c.7-.7 1.4-.8 1.9-.8.6 0 1.1.2 1.5.5l34.5 24.6c4.4 3.1 10.2 3.3 14.8.6 13-7.8 27.1-13.8 41.8-17.6 5.1-1.4 9-5.6 9.9-10.8l7.2-42.3c.2-1.3 1.3-2.2 2.6-2.2h42.1c1.3 0 2.4.9 2.6 2.2l7 41.7c.9 5.3 4.8 9.6 10 10.9 15.1 3.8 29.5 9.7 42.9 17.6 4.6 2.7 10.3 2.5 14.7-.6l34.5-24.8c.5-.3 1-.5 1.5-.5.4 0 1.2.1 1.9.8l29.8 29.8c.9.9 1 2.3.3 3.4l-24.7 34.7c-3.1 4.3-3.3 10.1-.6 14.7 7.8 13.1 13.6 27.2 17.4 41.9 1.3 5.2 5.6 9.1 10.8 9.9l42 7.1c1.3.2 2.2 1.3 2.2 2.6v42.1h-.1z"/><path d="M239.4 136.001c-57 0-103.3 46.3-103.3 103.3s46.3 103.3 103.3 103.3 103.3-46.3 103.3-103.3-46.3-103.3-103.3-103.3zm0 179.6c-42.1 0-76.3-34.2-76.3-76.3s34.2-76.3 76.3-76.3 76.3 34.2 76.3 76.3-34.2 76.3-76.3 76.3z"/></symbol><symbol viewBox="0 0 0 0" id="sprite" xmlns="http://www.w3.org/2000/svg"/><symbol fill="#fff" viewBox="0 0 512 512" id="works" xmlns="http://www.w3.org/2000/svg"><path d="M471.469 84.155l-47.75-79.22a10.198 10.198 0 0 0-17.469-.001l-47.75 79.22a10.2 10.2 0 0 0-1.465 5.265v42.977H314.13V89.419c0-1.875-.516-3.713-1.492-5.312l-48.329-79.22A10.2 10.2 0 0 0 255.602 0h-.023a10.2 10.2 0 0 0-8.708 4.928l-47.821 79.22a10.205 10.205 0 0 0-1.468 5.271v42.977h-42.616V89.419a10.19 10.19 0 0 0-1.465-5.265l-47.749-79.22a10.2 10.2 0 0 0-17.47 0l-47.751 79.22a10.2 10.2 0 0 0-1.465 5.265V501.8c0 5.632 4.566 10.199 10.199 10.199h95.499c5.633 0 10.199-4.567 10.199-10.199v-61.426h42.616V501.8c0 5.632 4.566 10.199 10.199 10.199h96.15c5.633 0 10.199-4.567 10.199-10.199v-61.426h42.906V501.8c0 5.632 4.566 10.199 10.199 10.199h95.498c5.633 0 10.199-4.567 10.199-10.199V89.419a10.16 10.16 0 0 0-1.46-5.264zM134.568 491.602H59.467V92.256l37.55-62.3 37.55 62.3v399.346zm63.013-71.625h-42.616v-52.311h42.616v52.311zm0-72.708h-42.616V225.504h42.616v121.765zm0-142.163h-42.616v-52.311h42.616v52.311zm96.15 286.496H217.98V92.259l37.668-62.401 38.084 62.426v399.318zm63.305-71.625H314.13v-52.311h42.906v52.311zm0-72.708H314.13V225.504h42.906v121.765zm0-142.163H314.13v-52.311h42.906v52.311zm95.498 286.496h-75.1V92.256l37.55-62.3 37.549 62.299v399.347z"/><path d="M429.092 320.138c-5.633 0-10.199 4.567-10.199 10.199v3.255c0 5.633 4.566 10.199 10.199 10.199s10.199-4.567 10.199-10.199v-3.255c0-5.632-4.566-10.199-10.199-10.199zM429.092 357.035c-5.633 0-10.199 4.567-10.199 10.199v102.01c0 5.632 4.566 10.198 10.199 10.198s10.199-4.567 10.199-10.199V367.235c0-5.632-4.566-10.2-10.199-10.2z"/></symbol></svg>